<?xml version="1.0" standalone="no"?>
<!DOCTYPE svg PUBLIC "-//W3C//DTD SVG 20010904//EN"
 "http://www.w3.org/TR/2001/REC-SVG-20010904/DTD/svg10.dtd">
<svg version="1.0" xmlns="http://www.w3.org/2000/svg"
 width="2000.000000pt" height="2000.000000pt" viewBox="0 0 2000.000000 2000.000000"
 preserveAspectRatio="xMidYMid meet">
<metadata>
Created by potrace 1.14, written by Peter Selinger 2001-2017
</metadata>
<g transform="translate(0.000000,2000.000000) scale(0.100000,-0.100000)"
fill="#000000" stroke="none">
<path d="M9916 17495 c-9 -13 -16 -29 -16 -35 0 -6 -17 -37 -38 -68 -21 -31
-51 -79 -67 -107 -15 -27 -31 -52 -34 -55 -4 -3 -22 -34 -40 -70 -19 -36 -56
-100 -83 -143 -26 -43 -48 -83 -48 -88 0 -13 -107 -243 -133 -284 -6 -11 -16
-23 -22 -27 -5 -4 -6 -8 -2 -8 5 0 -1 -15 -12 -34 -12 -18 -21 -40 -21 -48 0
-8 -8 -23 -19 -32 -10 -9 -21 -31 -25 -47 -3 -17 -13 -37 -21 -46 -9 -9 -14
-22 -11 -30 3 -7 -1 -16 -8 -19 -8 -3 -17 -13 -20 -22 -3 -9 -19 -41 -36 -70
-17 -29 -28 -57 -25 -63 4 -5 2 -9 -4 -9 -5 0 -40 -60 -77 -132 -37 -73 -76
-150 -87 -170 -10 -21 -22 -38 -26 -38 -4 0 -8 -6 -8 -14 0 -7 -16 -47 -37
-89 -20 -42 -36 -79 -36 -83 1 -4 -2 -10 -7 -13 -13 -9 -54 -98 -56 -120 0
-11 -4 -18 -7 -16 -3 2 -10 -8 -17 -21 -8 -18 -8 -22 0 -17 7 4 6 -1 -2 -10
-7 -9 -17 -14 -22 -11 -5 2 -11 -8 -15 -23 -7 -36 -36 -93 -46 -93 -5 0 -7 -3
-6 -7 3 -15 -14 -63 -23 -63 -5 0 -9 -7 -9 -15 0 -8 -5 -15 -12 -15 -6 0 -8
-3 -5 -7 4 -3 0 -15 -10 -25 -9 -10 -13 -18 -9 -18 3 0 0 -13 -9 -30 -9 -16
-12 -30 -9 -30 4 0 0 -8 -8 -17 -8 -10 -21 -32 -29 -50 -7 -17 -17 -29 -23
-26 -5 3 -6 1 -3 -4 7 -11 -18 -69 -33 -78 -5 -3 -7 -12 -3 -20 3 -8 0 -15 -6
-15 -6 0 -11 -5 -11 -11 0 -5 -11 -35 -25 -65 -14 -30 -25 -59 -25 -64 0 -6
-4 -10 -10 -10 -5 0 -10 -5 -10 -11 0 -6 -22 -57 -49 -113 -27 -55 -55 -118
-62 -138 -7 -21 -17 -38 -23 -38 -5 0 -7 -3 -3 -6 3 -4 -5 -27 -18 -53 -13
-25 -25 -53 -27 -61 -2 -8 -6 -17 -9 -20 -3 -3 -16 -27 -28 -55 -13 -27 -34
-72 -46 -100 -25 -53 -41 -93 -45 -110 -1 -5 -9 -18 -17 -27 -9 -10 -12 -18
-7 -18 5 0 4 -4 -1 -8 -14 -10 -41 -66 -44 -93 0 -5 -6 -7 -13 -3 -7 4 -8 3
-4 -4 8 -13 -27 -97 -52 -124 -8 -10 -10 -18 -4 -18 10 0 -35 -98 -59 -126 -9
-11 -8 -14 2 -14 11 -1 11 -3 -1 -13 -8 -7 -16 -19 -18 -27 -2 -8 -9 -22 -17
-30 -13 -15 -30 -61 -26 -69 2 -2 -1 -7 -6 -10 -5 -3 -17 -28 -27 -56 -10 -27
-25 -57 -32 -65 -7 -8 -13 -19 -15 -25 -1 -5 -4 -17 -6 -25 -7 -21 -10 -33
-12 -45 -2 -5 -11 -24 -22 -41 -10 -17 -16 -34 -12 -37 3 -4 -2 -7 -13 -7 -14
0 -16 -2 -6 -9 11 -6 10 -10 -4 -15 -9 -3 -14 -9 -11 -13 3 -3 0 -18 -8 -33
-8 -15 -11 -30 -8 -34 4 -3 2 -6 -4 -6 -5 0 -10 -6 -10 -12 0 -7 -20 -53 -44
-103 -24 -49 -42 -96 -41 -102 2 -7 -1 -13 -6 -13 -6 0 -9 -6 -9 -12 1 -20
-24 -78 -34 -78 -5 0 -9 -5 -9 -11 0 -5 -8 -29 -19 -52 -49 -110 -59 -136 -53
-141 3 -3 0 -6 -6 -6 -7 0 -12 -8 -12 -18 0 -10 -6 -27 -14 -38 -8 -11 -16
-31 -17 -44 -2 -14 -10 -31 -17 -38 -7 -8 -10 -18 -7 -23 4 -5 0 -9 -7 -9 -7
0 -14 -12 -14 -26 -1 -14 -10 -35 -20 -46 -11 -12 -13 -18 -7 -14 9 5 8 -2 -2
-21 -15 -28 -38 -82 -39 -95 -1 -3 -4 -10 -8 -14 -5 -4 -8 -13 -8 -20 0 -8
-13 -42 -28 -76 -16 -35 -32 -75 -36 -90 -3 -16 -11 -28 -17 -28 -6 0 -8 -4
-5 -8 6 -10 -31 -121 -45 -137 -5 -5 -9 -19 -9 -30 0 -12 -3 -25 -7 -29 -4 -3
-8 -15 -10 -26 -1 -10 -12 -37 -23 -59 -12 -21 -22 -49 -23 -60 -1 -12 -5 -21
-9 -21 -4 0 -8 -8 -8 -18 0 -10 -4 -22 -9 -27 -6 -6 -12 -21 -15 -35 -8 -44
-28 -90 -38 -90 -5 0 -7 -4 -4 -9 3 -5 0 -24 -8 -42 -8 -19 -15 -38 -16 -44
-4 -18 -50 -139 -65 -170 -29 -59 -65 -158 -60 -165 3 -5 0 -10 -5 -12 -10 -3
-16 -21 -19 -51 -1 -5 -6 -5 -11 -2 -6 4 -10 3 -9 -2 4 -18 -14 -73 -24 -73
-6 0 -7 -3 -4 -7 4 -3 2 -12 -3 -18 -6 -7 -11 -24 -12 -39 -1 -14 -6 -26 -10
-26 -4 0 -12 -10 -19 -21 -7 -15 -8 -19 0 -15 6 4 3 -8 -7 -26 -9 -18 -20 -35
-25 -36 -4 -2 -4 -8 -1 -13 3 -6 -2 -21 -10 -34 -9 -14 -14 -25 -10 -25 4 0 1
-7 -6 -15 -6 -8 -9 -18 -6 -24 3 -5 1 -11 -6 -13 -6 -2 -13 -15 -15 -28 -2
-13 -8 -27 -14 -31 -6 -3 -9 -12 -8 -20 3 -19 -26 -81 -34 -72 -4 3 -7 -8 -7
-25 0 -17 -5 -34 -10 -37 -6 -4 -8 -11 -5 -16 4 -5 -2 -9 -12 -9 -15 0 -16 -2
-3 -10 9 -6 10 -10 3 -10 -6 0 -11 -8 -11 -17 2 -29 -23 -97 -40 -110 -9 -7
-13 -13 -9 -13 4 0 2 -12 -4 -27 -6 -16 -13 -37 -15 -47 -2 -11 -7 -22 -12
-25 -5 -3 -8 -14 -6 -24 1 -9 -2 -15 -7 -11 -5 3 -9 1 -9 -5 0 -5 -5 -22 -12
-38 -6 -15 -12 -31 -13 -35 -2 -5 -4 -10 -5 -13 -1 -3 -3 -9 -4 -14 0 -5 -4
-12 -8 -16 -4 -4 -4 -13 -1 -21 3 -8 0 -14 -6 -14 -6 0 -11 -9 -11 -20 0 -11
-5 -20 -12 -20 -6 0 -8 -3 -5 -7 4 -3 2 -12 -4 -20 -6 -7 -9 -13 -5 -13 3 0
-6 -30 -20 -67 -15 -38 -26 -74 -27 -80 0 -7 -4 -13 -8 -13 -7 0 -24 -65 -22
-88 0 -6 -3 -12 -7 -12 -7 0 -19 -38 -22 -67 -1 -5 -8 -13 -17 -20 -9 -7 -12
-13 -7 -13 5 0 3 -6 -3 -14 -9 -10 -9 -16 -1 -21 7 -4 3 -13 -11 -26 -12 -10
-19 -25 -16 -33 4 -9 2 -18 -4 -21 -5 -4 -7 -11 -4 -16 4 -5 -1 -12 -9 -15 -9
-3 -13 -10 -10 -15 3 -5 -1 -9 -8 -10 -7 0 -4 -4 7 -9 17 -7 17 -9 3 -9 -10
-1 -19 -5 -19 -11 -1 -5 -2 -15 -3 -20 0 -6 -6 -14 -12 -18 -10 -6 -42 -70
-48 -97 -1 -5 -13 -44 -26 -85 -13 -41 -25 -79 -26 -85 -4 -17 -76 -209 -84
-226 -5 -9 -12 -36 -15 -60 -4 -24 -10 -50 -15 -59 -4 -8 -20 -60 -35 -115
-15 -55 -32 -105 -36 -111 -5 -6 -7 -13 -4 -16 3 -3 -4 -34 -15 -69 -12 -35
-24 -82 -27 -104 -3 -22 -12 -47 -19 -56 -8 -9 -14 -20 -12 -25 1 -5 -6 -36
-16 -69 -22 -73 -20 -63 -41 -215 -2 -8 -6 -42 -10 -75 -4 -33 -9 -73 -12 -90
-2 -16 -4 -38 -4 -47 0 -10 -3 -18 -7 -18 -4 0 -8 -24 -8 -52 -1 -29 -4 -69
-8 -88 -9 -60 -27 -193 -31 -240 -2 -25 -5 -45 -6 -45 -1 0 -3 -13 -4 -30 -3
-33 -16 -195 -17 -204 0 -3 1 -8 2 -11 6 -14 6 -118 -1 -136 -4 -13 -3 -26 4
-33 7 -7 7 -11 1 -11 -6 0 -11 -7 -11 -15 0 -8 4 -15 9 -15 4 0 8 -5 8 -11 0
-5 -4 -7 -10 -4 -7 4 -7 -2 0 -19 6 -16 6 -27 -1 -31 -5 -4 -6 -11 -3 -17 12
-19 14 -67 4 -73 -6 -4 -7 -12 -3 -18 4 -7 8 -23 9 -37 1 -13 6 -26 12 -28 8
-2 9 -10 3 -20 -8 -16 -7 -77 3 -154 3 -25 1 -38 -7 -38 -8 0 -8 -3 -2 -8 6
-4 11 -14 13 -22 5 -30 25 -59 36 -54 6 3 3 -1 -8 -10 -11 -9 -17 -23 -14 -34
3 -11 1 -26 -3 -35 -6 -9 -5 -18 0 -21 5 -3 9 -29 9 -56 1 -28 4 -56 9 -63 8
-12 12 -42 14 -105 0 -17 6 -35 12 -39 6 -4 7 -1 2 7 -5 9 -4 11 4 6 8 -5 9
-12 2 -20 -12 -15 -9 -39 7 -59 9 -10 10 -17 2 -22 -7 -4 -7 -12 0 -25 5 -10
10 -30 10 -44 0 -14 6 -26 13 -26 8 0 8 -3 2 -8 -14 -9 -13 -32 2 -58 7 -12 9
-24 6 -28 -3 -3 -2 -6 3 -6 6 0 11 -16 12 -37 2 -20 5 -40 8 -45 3 -4 7 -18
10 -30 2 -13 7 -36 11 -53 3 -16 7 -39 8 -50 1 -11 7 -33 14 -48 6 -16 9 -33
5 -38 -3 -5 0 -9 6 -9 6 0 9 -4 6 -9 -3 -5 0 -11 8 -14 7 -3 12 -18 11 -36 -1
-18 2 -34 6 -37 5 -2 6 -11 2 -19 -3 -8 -1 -15 4 -15 5 0 10 -6 10 -12 0 -7 3
-24 7 -37 6 -18 5 -22 -5 -17 -8 4 -6 1 4 -7 9 -8 17 -21 17 -30 0 -9 4 -18
10 -22 5 -3 7 -12 3 -20 -3 -8 0 -15 7 -15 6 0 8 -4 5 -10 -3 -5 0 -20 7 -32
7 -13 13 -26 14 -30 1 -5 3 -10 4 -13 1 -3 3 -8 4 -12 12 -51 38 -123 45 -123
5 0 8 -10 7 -22 -1 -14 4 -22 12 -20 6 1 12 -5 12 -14 0 -18 38 -91 57 -112 7
-7 13 -20 13 -28 0 -9 5 -12 12 -8 7 4 8 3 4 -5 -4 -6 -2 -18 4 -26 7 -8 9
-15 5 -15 -5 0 -1 -8 8 -17 8 -10 15 -20 14 -23 -3 -8 37 -72 84 -132 24 -31
51 -66 59 -78 8 -13 25 -35 38 -50 12 -15 22 -31 22 -35 0 -3 6 -12 13 -20 6
-7 20 -24 31 -39 10 -14 23 -23 29 -19 6 3 7 1 3 -5 -4 -7 -2 -12 4 -12 6 0 9
-4 6 -8 -3 -5 17 -29 44 -54 27 -25 47 -48 44 -50 -2 -3 20 -31 49 -62 30 -31
52 -56 50 -56 -7 0 23 -34 138 -151 64 -65 119 -116 123 -112 3 3 6 0 6 -9 0
-14 18 -32 75 -76 51 -39 95 -75 143 -120 25 -23 50 -42 55 -42 9 0 52 -32 92
-68 11 -10 23 -18 27 -17 4 0 15 -7 25 -15 10 -8 31 -21 46 -29 15 -8 27 -18
27 -23 0 -4 4 -8 10 -8 5 0 21 -9 34 -21 13 -12 27 -20 31 -19 4 1 15 -9 26
-21 10 -12 19 -19 19 -14 0 4 11 0 25 -9 14 -9 31 -14 38 -10 7 4 9 3 4 -1
-10 -12 52 -53 98 -65 6 -2 26 -13 45 -25 20 -12 46 -20 60 -18 17 2 21 0 11
-6 -9 -6 -10 -11 -2 -15 6 -4 11 -4 11 0 0 3 11 -1 25 -10 14 -9 25 -14 25
-11 0 3 10 -3 22 -15 12 -11 30 -20 40 -20 11 0 17 -4 14 -8 -2 -4 5 -9 16 -9
29 -3 79 -23 101 -41 9 -8 17 -12 17 -9 0 4 21 -5 46 -19 26 -15 55 -24 66
-21 11 3 17 3 14 0 -9 -9 74 -44 87 -36 5 3 7 1 4 -4 -7 -11 49 -27 64 -17 5
3 9 1 9 -4 0 -11 33 -24 65 -26 11 0 24 -7 28 -13 4 -7 15 -13 23 -13 8 0 22
-4 32 -9 36 -20 61 -26 120 -32 17 -2 32 -7 32 -12 0 -5 9 -7 21 -4 11 3 36
-1 55 -9 18 -8 46 -15 61 -16 16 -1 36 -9 47 -17 10 -9 19 -15 20 -13 0 2 13
1 27 -3 14 -3 41 -8 60 -10 19 -2 34 -4 34 -5 0 -1 9 -3 20 -4 11 -2 38 -6 60
-10 37 -5 111 -15 160 -20 11 -1 25 -5 31 -9 7 -4 23 -7 35 -6 36 1 162 -11
170 -17 4 -2 11 1 15 7 5 8 9 8 14 -1 5 -8 41 -13 103 -14 53 -1 99 -5 103 -8
4 -4 14 -3 23 1 16 9 95 6 111 -4 5 -3 11 1 13 7 4 10 6 10 6 1 1 -9 8 -10 27
-2 15 5 29 7 32 4 3 -2 11 0 19 6 10 9 13 8 13 0 0 -7 4 -9 10 -6 5 3 56 7
114 9 57 2 109 7 115 10 6 4 11 2 11 -4 0 -6 5 -8 13 -3 6 4 30 8 52 9 111 4
145 8 145 17 0 5 12 6 26 3 14 -4 23 -3 21 1 -3 4 16 9 41 9 26 1 74 5 107 9
33 4 68 7 78 7 9 -1 17 4 17 11 0 8 3 8 11 0 8 -8 22 -8 51 3 21 7 52 12 68
10 16 -2 32 -1 35 3 3 3 24 6 47 8 22 1 47 8 56 15 13 11 14 11 7 -2 -7 -12
-6 -13 6 -3 9 7 29 14 45 17 30 3 35 4 149 32 39 9 77 17 85 18 8 1 26 7 39
15 18 10 22 10 16 0 -5 -8 -4 -10 4 -5 7 4 31 10 54 13 23 2 47 9 54 15 7 5
17 7 24 3 6 -4 14 -2 18 4 4 6 16 14 27 16 10 3 44 12 74 21 30 9 67 17 82 18
14 0 24 4 21 8 -2 5 5 8 16 8 10 0 21 4 23 9 2 5 17 12 33 15 17 2 48 10 70
17 22 7 43 12 48 11 4 -1 7 3 7 8 0 5 3 9 8 8 4 -1 20 4 35 10 16 7 32 10 37
7 4 -3 11 2 14 11 3 8 10 13 15 10 5 -4 11 -2 13 4 2 6 14 12 28 15 14 3 26 9
28 14 2 5 12 7 22 4 11 -3 20 0 20 6 0 6 8 11 18 11 10 0 28 8 41 17 14 9 22
12 18 6 -4 -6 5 -6 28 1 18 6 31 14 29 18 -5 7 20 12 30 6 2 -2 14 6 25 16 12
11 30 21 39 23 36 7 40 9 55 21 20 17 152 82 166 82 6 0 11 5 11 11 0 5 5 7
10 4 6 -3 10 -1 10 5 0 6 4 9 9 5 6 -3 14 3 20 12 6 10 11 14 11 9 0 -5 12 1
27 15 14 13 23 18 18 11 -6 -11 -3 -12 14 -3 11 7 21 16 21 21 0 6 6 10 13 10
6 0 35 17 62 38 28 20 67 48 87 62 21 14 38 28 38 33 0 4 6 7 13 7 8 0 22 9
32 20 10 11 22 20 26 20 4 0 19 10 32 23 35 33 61 53 80 60 9 3 17 11 17 17 0
5 6 10 13 10 31 0 257 200 257 227 0 5 16 23 35 39 19 16 35 33 35 38 0 5 11
19 24 31 14 13 22 25 19 29 -3 3 11 22 31 42 20 20 36 41 36 47 0 6 8 20 18
31 23 25 112 175 112 187 0 5 5 9 12 9 6 0 8 3 5 6 -7 7 27 60 53 82 13 11 13
12 0 6 -11 -6 -10 -2 3 13 9 11 17 29 17 41 0 12 4 22 9 22 4 0 32 48 61 108
30 59 58 110 62 113 5 3 8 10 7 15 -1 5 16 47 38 94 23 47 44 95 48 108 3 12
10 22 15 22 5 0 7 6 4 14 -3 8 4 24 15 35 13 13 16 21 8 25 -9 3 -9 5 1 5 6 1
12 11 12 23 0 32 32 128 43 128 5 0 7 7 3 15 -3 8 -2 15 2 15 4 0 8 9 9 19 1
10 11 40 23 66 12 26 22 60 22 76 1 16 4 29 7 29 4 0 8 16 9 36 2 20 7 45 12
54 5 10 7 20 4 23 -3 3 -2 12 2 19 5 7 9 22 9 33 0 11 3 25 6 30 4 6 5 20 4
32 -1 13 2 23 7 23 5 0 7 4 3 9 -3 5 -1 12 4 15 10 7 9 25 -2 44 -5 6 -4 12 1
12 5 0 9 6 10 13 4 61 13 158 18 182 3 17 7 50 9 75 2 25 7 65 10 90 11 71 11
94 2 114 -6 12 -6 16 2 12 6 -4 9 4 6 24 -2 16 0 32 4 35 5 2 7 25 5 50 -1 25
0 43 4 41 4 -2 7 26 7 62 -1 37 2 76 6 88 4 11 3 27 -1 34 -5 8 -5 21 0 30 5
9 4 23 -1 33 -6 10 -6 17 -1 17 6 0 10 51 11 118 0 64 2 141 4 170 2 29 0 55
-3 57 -6 4 -5 80 1 102 2 6 -5 19 -16 27 -11 9 -15 16 -10 15 22 -3 25 2 16
20 -6 10 -7 21 -4 25 10 9 13 36 4 36 -4 0 -7 15 -8 33 -3 96 -6 126 -15 167
-11 47 -14 69 -22 160 -8 88 -16 151 -27 210 -5 30 -12 75 -15 100 -2 25 -7
54 -9 65 -3 11 -9 40 -15 65 -5 25 -14 61 -18 80 -5 20 -8 50 -8 67 1 17 -2
29 -6 26 -5 -2 -8 10 -8 26 0 43 0 44 -12 59 -6 6 -8 12 -5 12 3 0 1 15 -4 33
-5 17 -12 50 -15 72 -3 22 -10 52 -15 66 -6 14 -9 30 -8 35 1 5 -1 17 -6 27
-4 9 -5 26 -2 37 3 10 1 20 -3 22 -5 2 -11 17 -14 33 -16 86 -56 223 -82 281
-7 17 -15 40 -17 50 -2 11 -7 26 -10 34 -22 56 -68 199 -71 219 -2 13 -7 26
-12 30 -5 3 -10 15 -12 26 -3 21 -18 67 -33 100 -5 11 -11 29 -12 40 -5 25
-15 54 -29 79 -6 11 -12 33 -15 50 -3 16 -13 48 -23 71 -9 22 -23 60 -30 85
-8 25 -17 50 -21 55 -13 18 -38 98 -33 107 3 4 1 8 -3 8 -10 0 -43 74 -43 96
0 8 -5 24 -11 36 -6 11 -13 32 -15 46 -3 15 -11 34 -18 42 -15 17 -34 65 -40
97 -3 12 -15 44 -27 70 -12 26 -23 53 -24 59 -3 12 -17 44 -60 139 -15 33 -28
70 -29 82 0 11 -4 19 -8 16 -5 -2 -8 -1 -9 4 -3 32 -11 58 -20 64 -6 3 -12 18
-12 32 -1 14 -6 25 -12 24 -5 -1 -16 18 -25 43 -8 25 -21 55 -27 67 -7 12 -13
30 -13 40 0 10 -9 29 -20 43 -11 14 -20 31 -20 38 0 7 -18 49 -40 93 -22 44
-40 87 -40 95 0 8 -3 14 -8 14 -7 0 -54 93 -58 115 -3 16 -31 75 -74 155 -22
41 -42 82 -43 90 -1 8 -5 20 -9 25 -3 6 -47 91 -98 190 -51 99 -99 188 -108
198 -8 9 -17 29 -18 42 -1 14 -11 40 -22 58 -11 17 -25 49 -32 70 -6 20 -15
37 -20 37 -4 0 -10 14 -14 32 -3 17 -12 38 -18 46 -7 8 -13 21 -15 30 -1 9 -7
18 -12 20 -6 2 -11 15 -11 28 0 13 -4 24 -9 24 -5 0 -12 18 -16 40 -4 22 -12
40 -18 40 -5 0 -7 3 -4 7 4 3 1 13 -7 22 -8 9 -14 18 -14 21 1 6 -36 90 -63
143 -10 20 -17 37 -14 37 2 0 -23 53 -57 118 -92 178 -102 196 -111 203 -5 3
-8 8 -7 10 5 11 -13 59 -22 59 -6 0 -8 7 -4 15 3 8 0 14 -6 12 -7 -1 -12 3
-13 8 0 6 -6 20 -13 31 -6 12 -8 24 -5 28 3 3 0 6 -7 6 -7 0 -10 3 -7 6 7 7
-22 64 -38 76 -5 4 -6 8 -1 8 5 0 3 7 -4 15 -7 8 -9 15 -4 15 5 0 5 4 -1 8
-17 12 -46 83 -39 94 5 8 1 9 -10 5 -13 -5 -17 -3 -13 7 3 7 -3 23 -14 34 -10
12 -19 29 -19 39 0 10 -7 27 -15 37 -8 10 -12 23 -9 27 3 5 1 9 -5 9 -10 0
-23 29 -18 41 1 3 -4 13 -11 22 -8 9 -10 22 -6 28 4 8 3 9 -4 5 -12 -7 -32 31
-35 66 -1 9 -5 14 -9 12 -4 -3 -8 0 -8 6 0 6 -7 27 -17 48 -9 20 -17 40 -18
45 -2 4 -4 9 -5 12 -1 3 -3 9 -4 14 0 5 -5 13 -10 18 -5 5 -6 2 -1 -6 5 -9 4
-12 -3 -7 -6 4 -9 13 -5 21 3 9 -1 15 -11 15 -9 0 -13 6 -10 14 3 8 0 17 -5
21 -6 3 -9 10 -6 14 2 5 -4 16 -15 26 -10 9 -16 23 -13 31 3 8 1 14 -4 14 -5
0 -9 9 -10 19 -1 11 -14 38 -28 61 -15 23 -21 39 -13 34 7 -4 5 2 -4 13 -10
11 -18 25 -18 31 0 7 -5 12 -12 12 -6 0 -8 3 -5 6 4 4 -2 19 -13 33 -10 15
-22 40 -26 57 -3 16 -17 48 -31 72 -13 23 -20 42 -16 42 4 0 -1 7 -11 15 -11
8 -16 18 -13 22 4 3 -1 15 -10 26 -10 11 -12 17 -5 13 8 -5 5 9 -8 34 -17 33
-24 40 -31 29 -5 -9 -7 -3 -4 19 2 18 0 30 -6 27 -5 -4 -9 -1 -9 5 0 6 -4 9
-9 6 -4 -3 -7 6 -5 20 1 14 -3 27 -10 30 -6 2 -13 14 -13 26 -1 12 -7 24 -13
28 -6 4 -8 14 -4 23 3 10 1 17 -6 17 -6 0 -9 4 -5 9 3 5 -4 12 -15 16 -11 4
-18 10 -15 15 9 15 -29 91 -43 85 -8 -3 -10 0 -5 8 9 14 5 47 -8 63 -5 6 -6
14 -2 17 3 4 -1 7 -10 7 -10 0 -17 7 -17 15 0 8 -5 15 -11 15 -5 0 -7 5 -4 10
3 6 2 10 -3 10 -5 0 -9 6 -9 13 0 14 -18 56 -79 183 -24 49 -44 95 -44 101 0
6 -7 16 -15 23 -8 7 -15 21 -15 31 0 11 -5 19 -12 19 -6 0 -8 3 -5 7 4 3 1 13
-5 21 -7 8 -13 20 -14 28 -4 23 -28 74 -36 74 -5 0 -7 3 -7 8 4 24 -4 40 -23
50 -13 6 -17 11 -10 11 10 1 10 6 2 21 -6 11 -16 17 -22 14 -6 -4 -8 -3 -5 3
9 14 -27 95 -38 85 -5 -4 -5 -2 -2 4 4 7 -4 32 -18 56 -13 24 -26 54 -28 67
-2 12 -11 31 -20 41 -9 11 -14 20 -11 20 4 0 -1 11 -10 25 -9 14 -14 30 -11
35 3 6 2 10 -4 10 -6 0 -17 17 -26 38 -9 20 -23 48 -30 62 -7 14 -10 31 -7 39
2 8 0 11 -6 8 -5 -4 -13 3 -17 16 -4 12 -8 25 -10 30 -1 4 -3 14 -4 22 0 8 -7
15 -14 15 -8 0 -14 6 -15 13 -1 17 -7 38 -19 67 -6 14 -11 29 -11 33 -1 4 -8
15 -17 23 -8 9 -15 22 -15 30 0 8 -4 13 -9 10 -5 -4 -7 4 -3 16 5 20 3 21 -10
10 -13 -10 -17 -10 -21 2 -4 9 -2 18 3 21 5 3 5 16 -2 30 -6 13 -14 22 -19 20
-4 -3 -6 3 -4 12 3 18 -20 67 -43 91 -7 8 -10 18 -7 23 4 5 2 9 -3 9 -5 0 -13
15 -17 33 -10 43 -8 37 -33 77 -12 19 -22 39 -22 44 0 5 -11 24 -25 41 -13 18
-21 35 -18 39 4 3 0 6 -7 6 -7 0 -10 3 -7 6 3 4 1 16 -5 28 -7 11 -11 24 -10
29 1 4 -2 7 -8 7 -5 0 -12 16 -16 35 -3 19 -10 35 -16 35 -5 0 -7 4 -4 9 3 5
-3 20 -14 34 -11 14 -20 32 -20 40 0 9 -6 22 -14 29 -21 21 -56 94 -58 122 -1
14 -6 22 -10 20 -4 -3 -8 2 -8 10 0 9 -4 16 -10 16 -5 0 -10 9 -10 20 0 11 -4
20 -10 20 -5 0 -10 9 -10 20 0 11 -5 20 -11 20 -5 0 -8 4 -5 9 3 5 -1 14 -8
21 -8 6 -18 25 -21 41 -4 16 -11 29 -16 29 -5 0 -8 3 -7 8 1 4 -8 28 -20 55
-12 26 -21 50 -21 53 0 2 -11 19 -25 35 -15 17 -26 37 -26 45 0 8 -5 14 -12
14 -6 0 -8 3 -5 7 4 3 0 17 -8 30 -9 13 -12 23 -9 23 4 0 0 8 -8 18 -14 16
-28 41 -74 134 -23 47 -38 53 -58 23z"/>
</g>
</svg>
